<svg width="24" height="24" viewBox="0 0 24 24" fill="none" xmlns="http://www.w3.org/2000/svg">
<path d="M17 6C17 6.39782 17.158 6.77936 17.4393 7.06066C17.7206 7.34196 18.1022 7.5 18.5 7.5H20.75C20.9489 7.5 21.1397 7.57902 21.2803 7.71967C21.421 7.86032 21.5 8.05109 21.5 8.25C21.5 8.44891 21.421 8.63968 21.2803 8.78033C21.1397 8.92098 20.9489 9 20.75 9H18.5C17.7044 9 16.9413 8.68393 16.3787 8.12132C15.8161 7.55871 15.5 6.79565 15.5 6V3.75C15.5 3.55109 15.579 3.36032 15.7197 3.21967C15.8603 3.07902 16.0511 3 16.25 3C16.4489 3 16.6397 3.07902 16.7803 3.21967C16.921 3.36032 17 3.55109 17 3.75V6ZM17 18C17 17.6022 17.158 17.2206 17.4393 16.9393C17.7206 16.658 18.1022 16.5 18.5 16.5H20.75C20.9489 16.5 21.1397 16.421 21.2803 16.2803C21.421 16.1397 21.5 15.9489 21.5 15.75C21.5 15.5511 21.421 15.3603 21.2803 15.2197C21.1397 15.079 20.9489 15 20.75 15H18.5C17.7044 15 16.9413 15.3161 16.3787 15.8787C15.8161 16.4413 15.5 17.2044 15.5 18V20.25C15.5 20.4489 15.579 20.6397 15.7197 20.7803C15.8603 20.921 16.0511 21 16.25 21C16.4489 21 16.6397 20.921 16.7803 20.7803C16.921 20.6397 17 20.4489 17 20.25V18ZM6.5 16.5C6.89782 16.5 7.27936 16.658 7.56066 16.9393C7.84196 17.2206 8 17.6022 8 18V20.25C8 20.4489 8.07902 20.6397 8.21967 20.7803C8.36032 20.921 8.55109 21 8.75 21C8.94891 21 9.13968 20.921 9.28033 20.7803C9.42098 20.6397 9.5 20.4489 9.5 20.25V18C9.5 17.2044 9.18393 16.4413 8.62132 15.8787C8.05871 15.3161 7.29565 15 6.5 15H4.25C4.05109 15 3.86032 15.079 3.71967 15.2197C3.57902 15.3603 3.5 15.5511 3.5 15.75C3.5 15.9489 3.57902 16.1397 3.71967 16.2803C3.86032 16.421 4.05109 16.5 4.25 16.5H6.5ZM8 6C8 6.39782 7.84196 6.77936 7.56066 7.06066C7.27936 7.34196 6.89782 7.5 6.5 7.5H4.25C4.05109 7.5 3.86032 7.57902 3.71967 7.71967C3.57902 7.86032 3.5 8.05109 3.5 8.25C3.5 8.44891 3.57902 8.63968 3.71967 8.78033C3.86032 8.92098 4.05109 9 4.25 9H6.5C7.29565 9 8.05871 8.68393 8.62132 8.12132C9.18393 7.55871 9.5 6.79565 9.5 6V3.75C9.5 3.55109 9.42098 3.36032 9.28033 3.21967C9.13968 3.07902 8.94891 3 8.75 3C8.55109 3 8.36032 3.07902 8.21967 3.21967C8.07902 3.36032 8 3.55109 8 3.75V6Z" fill="#F8F8F8"/>
</svg>
