<svg width="24" height="24" viewBox="0 0 24 24" fill="none" xmlns="http://www.w3.org/2000/svg">
<path fill-rule="evenodd" clip-rule="evenodd" d="M21.3335 7.05914C21.3335 4.63316 19.3668 2.6665 16.9409 2.6665H14.6668V4.14799H16.7057C18.5252 4.14799 20.0002 5.62297 20.0002 7.44246V9.33317H21.3335V7.05914Z" fill="white"/>
<path fill-rule="evenodd" clip-rule="evenodd" d="M2.66699 7.05914C2.66699 4.63316 4.63364 2.6665 7.05963 2.6665H9.33366V4.14799H7.2948C5.47531 4.14799 4.00033 5.62297 4.00033 7.44246V9.33317H2.66699V7.05914Z" fill="white"/>
<path fill-rule="evenodd" clip-rule="evenodd" d="M16.9409 21.333C19.3668 21.333 21.3335 19.3664 21.3335 16.9404L21.3335 14.6663L19.852 14.6663L19.852 16.7052C19.852 18.5247 18.377 19.9997 16.5575 19.9997L14.6668 19.9997L14.6668 21.333L16.9409 21.333Z" fill="white"/>
<path fill-rule="evenodd" clip-rule="evenodd" d="M7.05963 21.333C4.63364 21.333 2.66699 19.3664 2.66699 16.9404L2.66699 14.6663L4.14847 14.6663L4.14847 16.7052C4.14847 18.5247 5.62346 19.9997 7.44295 19.9997L9.33366 19.9997L9.33366 21.333L7.05963 21.333Z" fill="white"/>
</svg>
