<svg width="28" height="28" viewBox="0 0 28 28" fill="none" xmlns="http://www.w3.org/2000/svg">
<g clip-path="url(#clip0_7301_3926)">
<path d="M4.34456 15.9138C4.34456 17.8234 4.91082 19.6901 5.97175 21.2779C7.03267 22.8657 8.5406 24.1032 10.3049 24.834C12.0691 25.5648 14.0104 25.756 15.8834 25.3834C17.7563 25.0109 19.4767 24.0913 20.827 22.741C22.1773 21.3907 23.0968 19.6703 23.4694 17.7974C23.8419 15.9245 23.6507 13.9832 22.9199 12.2189C22.1892 10.4547 20.9516 8.94673 19.3639 7.88581C17.7761 6.82489 15.9093 6.25862 13.9997 6.25862H10.1377V11.0862L4.34456 5.2931L10.1377 -0.5V4.32759H13.9997C16.2913 4.32759 18.5313 5.0071 20.4367 6.28021C22.342 7.55332 23.8271 9.36284 24.704 11.4799C25.5809 13.597 25.8104 15.9266 25.3633 18.1741C24.9163 20.4217 23.8128 22.4861 22.1924 24.1065C20.5721 25.7268 18.5076 26.8303 16.2601 27.2774C14.0126 27.7244 11.683 27.495 9.56588 26.618C7.44878 25.7411 5.63926 24.2561 4.36615 22.3507C3.09304 20.4454 2.41352 18.2053 2.41352 15.9138H4.34456Z" fill="white"/>
<path d="M16.0473 13.7166H12.7163L12.5907 16.1979C12.6666 16.0487 12.7504 15.9037 12.8418 15.7634C12.9302 15.6353 13.0377 15.5214 13.1604 15.4255C13.289 15.3289 13.4325 15.2538 13.5852 15.2034C13.7733 15.1485 13.9686 15.1224 14.1645 15.1262C14.4676 15.1224 14.7688 15.1747 15.0528 15.2807C15.3216 15.3818 15.5654 15.5399 15.7673 15.7441C15.977 15.9567 16.1412 16.2096 16.2501 16.4876C16.3679 16.7957 16.4268 17.1232 16.4238 17.4531C16.429 17.806 16.3668 18.1567 16.2404 18.4862C16.1236 18.7915 15.9425 19.0681 15.7094 19.2972C15.4647 19.5343 15.1715 19.7155 14.8501 19.8283C14.4765 19.9667 14.08 20.0322 13.6818 20.0214C13.376 20.024 13.0711 19.9884 12.7742 19.9152C12.5232 19.8448 12.2829 19.7409 12.0597 19.6062C11.8625 19.488 11.6836 19.3416 11.5287 19.1717C11.3822 19.006 11.2498 18.8284 11.1328 18.6407L12.1563 17.8586L12.417 18.2545C12.5114 18.3779 12.6218 18.4883 12.7452 18.5828C12.872 18.6743 13.012 18.7459 13.1604 18.7952C13.3312 18.8533 13.5112 18.8795 13.6914 18.8724C13.8678 18.8864 14.0452 18.8626 14.2117 18.8027C14.3781 18.7427 14.5299 18.648 14.6569 18.5248C14.8839 18.2562 14.998 17.9102 14.9756 17.5593V17.5014C14.9889 17.3361 14.9659 17.17 14.9084 17.0145C14.8508 16.8591 14.76 16.7181 14.6424 16.6013C14.5247 16.4845 14.383 16.3949 14.2271 16.3385C14.0712 16.2822 13.9048 16.2606 13.7397 16.2752C13.4805 16.2626 13.223 16.3228 12.9963 16.449C12.8226 16.5489 12.6662 16.676 12.5328 16.8255L11.3838 16.6614L11.6638 12.5H16.028L16.0473 13.7166Z" fill="white"/>
</g>
<defs>
<clipPath id="clip0_7301_3926">
<rect width="28" height="28" fill="white" transform="matrix(-1 0 0 1 28 0)"/>
</clipPath>
</defs>
</svg>
