<svg width="28" height="28" viewBox="0 0 28 28" fill="none" xmlns="http://www.w3.org/2000/svg">
<g clip-path="url(#clip0_7301_3929)">
<path d="M23.655 15.9138C23.655 17.8234 23.0887 19.6901 22.0278 21.2779C20.9668 22.8657 19.4589 24.1032 17.6947 24.834C15.9304 25.5648 13.9891 25.756 12.1162 25.3834C10.2432 25.0109 8.52285 24.0913 7.17255 22.741C5.82225 21.3907 4.90268 19.6703 4.53014 17.7974C4.15759 15.9245 4.34879 13.9832 5.07957 12.2189C5.81035 10.4547 7.04787 8.94673 8.63566 7.88581C10.2234 6.82489 12.0902 6.25862 13.9998 6.25862H17.8619V11.0862L23.655 5.2931L17.8619 -0.5V4.32759H13.9998C11.7082 4.32759 9.46818 5.0071 7.56283 6.28021C5.65749 7.55332 4.17246 9.36284 3.29553 11.4799C2.41859 13.597 2.18915 15.9266 2.63621 18.1741C3.08326 20.4217 4.18674 22.4861 5.8071 24.1065C7.42746 25.7268 9.49192 26.8303 11.7394 27.2774C13.9869 27.7244 16.3165 27.495 18.4336 26.618C20.5507 25.7411 22.3603 24.2561 23.6334 22.3507C24.9065 20.4454 25.586 18.2053 25.586 15.9138H23.655Z" fill="white"/>
<path d="M16.4907 13.7166H13.1596L13.0341 16.1979C13.1099 16.0487 13.1937 15.9037 13.2851 15.7634C13.3736 15.6353 13.481 15.5214 13.6038 15.4255C13.7323 15.3289 13.8758 15.2538 14.0286 15.2034C14.2167 15.1485 14.412 15.1224 14.6079 15.1262C14.911 15.1224 15.2122 15.1747 15.4962 15.2807C15.765 15.3818 16.0087 15.5399 16.2107 15.7441C16.4203 15.9567 16.5846 16.2096 16.6934 16.4876C16.8113 16.7957 16.8702 17.1232 16.8672 17.4531C16.8724 17.806 16.8101 18.1567 16.6838 18.4862C16.567 18.7915 16.3859 19.0681 16.1527 19.2972C15.9081 19.5343 15.6149 19.7155 15.2934 19.8283C14.9199 19.9667 14.5233 20.0322 14.1251 20.0214C13.8194 20.024 13.5145 19.9884 13.2176 19.9152C12.9666 19.8448 12.7262 19.7409 12.5031 19.6062C12.3059 19.488 12.127 19.3416 11.972 19.1717C11.8256 19.006 11.6932 18.8284 11.5762 18.6407L12.5996 17.8586L12.8603 18.2545C12.9547 18.3779 13.0651 18.4883 13.1886 18.5828C13.3154 18.6743 13.4554 18.7459 13.6038 18.7952C13.7745 18.8533 13.9545 18.8795 14.1348 18.8724C14.3112 18.8864 14.4885 18.8626 14.655 18.8027C14.8215 18.7427 14.9733 18.648 15.1003 18.5248C15.3272 18.2562 15.4414 17.9102 15.4189 17.5593V17.5014C15.4322 17.3361 15.4093 17.17 15.3517 17.0145C15.2942 16.8591 15.2034 16.7181 15.0857 16.6013C14.9681 16.4845 14.8263 16.3949 14.6704 16.3385C14.5145 16.2822 14.3482 16.2606 14.1831 16.2752C13.9239 16.2626 13.6664 16.3228 13.4396 16.449C13.266 16.5489 13.1095 16.676 12.9762 16.8255L11.8272 16.6614L12.1072 12.5H16.4713L16.4907 13.7166Z" fill="white"/>
</g>
<defs>
<clipPath id="clip0_7301_3929">
<rect width="28" height="28" fill="white"/>
</clipPath>
</defs>
</svg>
