<svg width="20" height="16" viewBox="0 0 20 16" fill="none" xmlns="http://www.w3.org/2000/svg">
<path d="M8.45 11.5C8.85 11.9 9.36667 12.0957 10 12.087C10.6333 12.079 11.1 11.85 11.4 11.4L17 3L8.6 8.6C8.15 8.9 7.91267 9.35833 7.888 9.975C7.86267 10.5917 8.05 11.1 8.45 11.5ZM10 0C10.9833 0 11.9293 0.137334 12.838 0.412C13.746 0.687334 14.6 1.1 15.4 1.65L13.5 2.85C12.95 2.56667 12.3793 2.35433 11.788 2.213C11.196 2.071 10.6 2 10 2C7.78333 2 5.896 2.779 4.338 4.337C2.77933 5.89567 2 7.78333 2 10C2 10.7 2.09567 11.3917 2.287 12.075C2.479 12.7583 2.75 13.4 3.1 14H16.9C17.2833 13.3667 17.5627 12.7083 17.738 12.025C17.9127 11.3417 18 10.6333 18 9.9C18 9.3 17.9293 8.71667 17.788 8.15C17.646 7.58333 17.4333 7.03333 17.15 6.5L18.35 4.6C18.85 5.38333 19.246 6.21667 19.538 7.1C19.8293 7.98333 19.9833 8.9 20 9.85C20.0167 10.8 19.9083 11.7083 19.675 12.575C19.4417 13.4417 19.1 14.2667 18.65 15.05C18.4667 15.35 18.2167 15.5833 17.9 15.75C17.5833 15.9167 17.25 16 16.9 16H3.1C2.75 16 2.41667 15.9167 2.1 15.75C1.78333 15.5833 1.53333 15.35 1.35 15.05C0.916667 14.3 0.583333 13.5043 0.35 12.663C0.116667 11.821 0 10.9333 0 10C0 8.61667 0.262667 7.32067 0.788 6.112C1.31267 4.904 2.02933 3.84567 2.938 2.937C3.846 2.029 4.90833 1.31233 6.125 0.787C7.34167 0.262334 8.63333 0 10 0Z" fill="#F8F8F8"/>
</svg>
